<mxfile host="app.diagrams.net" agent="Mozilla/5.0 (Macintosh; Intel Mac OS X 10.15; rv:131.0) Gecko/20100101 Firefox/131.0" version="24.7.17">
  <diagram name="Page-1" id="Eka1PPKyu_ZjgxXCbcUU">
    <mxGraphModel dx="2044" dy="2239" grid="1" gridSize="10" guides="1" tooltips="1" connect="1" arrows="1" fold="1" page="1" pageScale="1" pageWidth="850" pageHeight="1100" math="0" shadow="0">
      <root>
        <mxCell id="0" />
        <mxCell id="1" parent="0" />
        <mxCell id="fEmxXx-BURREVS9Ziwy8-1" value="Database Data" style="rounded=1;whiteSpace=wrap;html=1;" parent="1" vertex="1">
          <mxGeometry x="140" y="-48" width="240" height="80" as="geometry" />
        </mxCell>
        <mxCell id="5nEWgK4oSF62hY6LsSJZ-9" value="" style="edgeStyle=orthogonalEdgeStyle;rounded=0;orthogonalLoop=1;jettySize=auto;html=1;strokeWidth=3;" edge="1" parent="1" source="fEmxXx-BURREVS9Ziwy8-2" target="fEmxXx-BURREVS9Ziwy8-1">
          <mxGeometry relative="1" as="geometry" />
        </mxCell>
        <mxCell id="fEmxXx-BURREVS9Ziwy8-2" value="CoCoRaHS Data" style="rounded=1;whiteSpace=wrap;html=1;" parent="1" vertex="1">
          <mxGeometry x="-80" y="-48" width="120" height="80" as="geometry" />
        </mxCell>
        <mxCell id="fEmxXx-BURREVS9Ziwy8-8" value="Script to move data" style="text;html=1;align=center;verticalAlign=middle;resizable=0;points=[];autosize=1;strokeColor=none;fillColor=none;rotation=-90;" parent="1" vertex="1">
          <mxGeometry x="-90" y="100" width="120" height="30" as="geometry" />
        </mxCell>
        <mxCell id="fEmxXx-BURREVS9Ziwy8-10" value="Request Geographical Data" style="text;html=1;align=center;verticalAlign=middle;resizable=0;points=[];autosize=1;strokeColor=none;fillColor=none;rotation=0;" parent="1" vertex="1">
          <mxGeometry x="80" y="140" width="170" height="30" as="geometry" />
        </mxCell>
        <mxCell id="fEmxXx-BURREVS9Ziwy8-24" value="" style="rounded=0;whiteSpace=wrap;html=1;" parent="1" vertex="1">
          <mxGeometry x="-120" y="210" width="760" height="350" as="geometry" />
        </mxCell>
        <mxCell id="fEmxXx-BURREVS9Ziwy8-26" value="Region View&lt;div&gt;&lt;br&gt;&lt;/div&gt;&lt;div&gt;[Region_id&lt;/div&gt;&lt;div&gt;Region name&lt;/div&gt;&lt;div&gt;&lt;span style=&quot;background-color: initial;&quot;&gt;Average data for region]&lt;/span&gt;&lt;/div&gt;" style="rounded=1;whiteSpace=wrap;html=1;" parent="1" vertex="1">
          <mxGeometry x="-40" y="240" width="130" height="80" as="geometry" />
        </mxCell>
        <mxCell id="fEmxXx-BURREVS9Ziwy8-27" value="State View&lt;div&gt;&lt;br&gt;&lt;/div&gt;&lt;div&gt;[State_id&lt;/div&gt;&lt;div&gt;State name&lt;/div&gt;&lt;div&gt;Average data for state]&lt;/div&gt;" style="rounded=1;whiteSpace=wrap;html=1;" parent="1" vertex="1">
          <mxGeometry x="195" y="240" width="130" height="80" as="geometry" />
        </mxCell>
        <mxCell id="fEmxXx-BURREVS9Ziwy8-28" value="County View&lt;div&gt;&lt;br&gt;&lt;/div&gt;&lt;div&gt;[County_id&lt;/div&gt;&lt;div&gt;County name&lt;/div&gt;&lt;div&gt;individual county data]&lt;/div&gt;" style="rounded=1;whiteSpace=wrap;html=1;" parent="1" vertex="1">
          <mxGeometry x="410" y="240" width="130" height="80" as="geometry" />
        </mxCell>
        <mxCell id="fEmxXx-BURREVS9Ziwy8-29" value="Display Region Rainfall Data to End User" style="rounded=1;whiteSpace=wrap;html=1;" parent="1" vertex="1">
          <mxGeometry x="-35" y="460" width="120" height="60" as="geometry" />
        </mxCell>
        <mxCell id="fEmxXx-BURREVS9Ziwy8-30" value="" style="edgeStyle=none;orthogonalLoop=1;jettySize=auto;html=1;rounded=0;exitX=0.5;exitY=1;exitDx=0;exitDy=0;entryX=0.5;entryY=0;entryDx=0;entryDy=0;" parent="1" source="fEmxXx-BURREVS9Ziwy8-26" target="fEmxXx-BURREVS9Ziwy8-29" edge="1">
          <mxGeometry width="100" relative="1" as="geometry">
            <mxPoint x="-10" y="360" as="sourcePoint" />
            <mxPoint x="30" y="430" as="targetPoint" />
            <Array as="points" />
          </mxGeometry>
        </mxCell>
        <mxCell id="fEmxXx-BURREVS9Ziwy8-31" value="" style="edgeStyle=none;orthogonalLoop=1;jettySize=auto;html=1;rounded=0;exitX=0.5;exitY=1;exitDx=0;exitDy=0;entryX=0.5;entryY=0;entryDx=0;entryDy=0;" parent="1" source="fEmxXx-BURREVS9Ziwy8-27" target="fEmxXx-BURREVS9Ziwy8-33" edge="1">
          <mxGeometry width="100" relative="1" as="geometry">
            <mxPoint x="210" y="370" as="sourcePoint" />
            <mxPoint x="260" y="440" as="targetPoint" />
            <Array as="points" />
          </mxGeometry>
        </mxCell>
        <mxCell id="fEmxXx-BURREVS9Ziwy8-32" value="" style="edgeStyle=none;orthogonalLoop=1;jettySize=auto;html=1;rounded=0;exitX=0.5;exitY=1;exitDx=0;exitDy=0;exitPerimeter=0;entryX=0.5;entryY=0;entryDx=0;entryDy=0;" parent="1" source="fEmxXx-BURREVS9Ziwy8-28" target="fEmxXx-BURREVS9Ziwy8-34" edge="1">
          <mxGeometry width="100" relative="1" as="geometry">
            <mxPoint x="370" y="430" as="sourcePoint" />
            <mxPoint x="475" y="440" as="targetPoint" />
            <Array as="points" />
          </mxGeometry>
        </mxCell>
        <mxCell id="fEmxXx-BURREVS9Ziwy8-33" value="Display State Rainfall Data to End User" style="rounded=1;whiteSpace=wrap;html=1;" parent="1" vertex="1">
          <mxGeometry x="200" y="460" width="120" height="60" as="geometry" />
        </mxCell>
        <mxCell id="fEmxXx-BURREVS9Ziwy8-34" value="Display County Rainfall Data to End User" style="rounded=1;whiteSpace=wrap;html=1;" parent="1" vertex="1">
          <mxGeometry x="415" y="460" width="120" height="60" as="geometry" />
        </mxCell>
        <mxCell id="fEmxXx-BURREVS9Ziwy8-37" value="" style="edgeStyle=none;orthogonalLoop=1;jettySize=auto;html=1;rounded=0;exitX=0.5;exitY=1;exitDx=0;exitDy=0;strokeWidth=3;entryX=0.5;entryY=0;entryDx=0;entryDy=0;" parent="1" source="fEmxXx-BURREVS9Ziwy8-1" edge="1" target="fEmxXx-BURREVS9Ziwy8-24">
          <mxGeometry width="100" relative="1" as="geometry">
            <mxPoint x="250" y="120" as="sourcePoint" />
            <mxPoint x="260" y="200" as="targetPoint" />
            <Array as="points" />
          </mxGeometry>
        </mxCell>
        <mxCell id="5nEWgK4oSF62hY6LsSJZ-1" value="End User" style="rounded=1;whiteSpace=wrap;html=1;" vertex="1" parent="1">
          <mxGeometry x="150" y="960" width="220" height="90" as="geometry" />
        </mxCell>
        <mxCell id="5nEWgK4oSF62hY6LsSJZ-4" value="" style="endArrow=classic;html=1;rounded=0;exitX=0.393;exitY=-0.017;exitDx=0;exitDy=0;exitPerimeter=0;entryX=0.469;entryY=1.005;entryDx=0;entryDy=0;entryPerimeter=0;strokeWidth=3;" edge="1" parent="1" source="5nEWgK4oSF62hY6LsSJZ-1" target="fEmxXx-BURREVS9Ziwy8-24">
          <mxGeometry width="50" height="50" relative="1" as="geometry">
            <mxPoint x="240" y="530" as="sourcePoint" />
            <mxPoint x="290" y="480" as="targetPoint" />
          </mxGeometry>
        </mxCell>
        <mxCell id="5nEWgK4oSF62hY6LsSJZ-5" value="" style="endArrow=classic;html=1;rounded=0;exitX=0.531;exitY=1.011;exitDx=0;exitDy=0;exitPerimeter=0;strokeWidth=3;entryX=0.203;entryY=-0.044;entryDx=0;entryDy=0;entryPerimeter=0;" edge="1" parent="1" source="fEmxXx-BURREVS9Ziwy8-24" target="5nEWgK4oSF62hY6LsSJZ-11">
          <mxGeometry width="50" height="50" relative="1" as="geometry">
            <mxPoint x="240" y="530" as="sourcePoint" />
            <mxPoint x="284" y="800" as="targetPoint" />
          </mxGeometry>
        </mxCell>
        <mxCell id="5nEWgK4oSF62hY6LsSJZ-6" value="Change Date/scale" style="text;html=1;align=center;verticalAlign=middle;whiteSpace=wrap;rounded=0;rotation=-90;fontStyle=1;fontSize=13;" vertex="1" parent="1">
          <mxGeometry x="120" y="660" width="180" height="30" as="geometry" />
        </mxCell>
        <mxCell id="5nEWgK4oSF62hY6LsSJZ-7" value="&lt;b&gt;&lt;font style=&quot;font-size: 13px;&quot;&gt;Display requested parameters&lt;/font&gt;&lt;/b&gt;" style="text;html=1;align=center;verticalAlign=middle;whiteSpace=wrap;rounded=0;rotation=90;" vertex="1" parent="1">
          <mxGeometry x="195" y="660" width="220" height="40" as="geometry" />
        </mxCell>
        <mxCell id="5nEWgK4oSF62hY6LsSJZ-8" value="Web server" style="text;html=1;align=center;verticalAlign=middle;whiteSpace=wrap;rounded=0;" vertex="1" parent="1">
          <mxGeometry x="220" y="535" width="80" height="30" as="geometry" />
        </mxCell>
        <mxCell id="5nEWgK4oSF62hY6LsSJZ-11" value="Map API" style="rounded=1;whiteSpace=wrap;html=1;" vertex="1" parent="1">
          <mxGeometry x="260" y="810" width="120" height="60" as="geometry" />
        </mxCell>
        <mxCell id="5nEWgK4oSF62hY6LsSJZ-13" value="" style="endArrow=classic;html=1;rounded=0;exitX=0.205;exitY=0.991;exitDx=0;exitDy=0;entryX=0.612;entryY=0.008;entryDx=0;entryDy=0;entryPerimeter=0;exitPerimeter=0;strokeWidth=3;" edge="1" parent="1" source="5nEWgK4oSF62hY6LsSJZ-11" target="5nEWgK4oSF62hY6LsSJZ-1">
          <mxGeometry width="50" height="50" relative="1" as="geometry">
            <mxPoint x="240" y="810" as="sourcePoint" />
            <mxPoint x="290" y="760" as="targetPoint" />
          </mxGeometry>
        </mxCell>
        <mxCell id="5nEWgK4oSF62hY6LsSJZ-14" value="" style="endArrow=classic;html=1;rounded=0;exitX=0.151;exitY=-0.006;exitDx=0;exitDy=0;exitPerimeter=0;entryX=0.615;entryY=1.025;entryDx=0;entryDy=0;entryPerimeter=0;strokeWidth=3;" edge="1" parent="1" source="fEmxXx-BURREVS9Ziwy8-24" target="fEmxXx-BURREVS9Ziwy8-2">
          <mxGeometry width="50" height="50" relative="1" as="geometry">
            <mxPoint x="170" y="410" as="sourcePoint" />
            <mxPoint x="220" y="360" as="targetPoint" />
          </mxGeometry>
        </mxCell>
      </root>
    </mxGraphModel>
  </diagram>
</mxfile>
